# xmcd
#
# Track frame offsets:
#	150
#	16292
#	30912
#	43195
#	58495
#	69407
#	87492
#	102870
#	116977
#	130687
#	143255
#	158462
#	172427
#
# Disc length: 2557 seconds
#
# Revision: 1
# Processed by: cddbd v1.5.2PL0 Copyright (c) Steve Scherf et al.
# Submitted via: audiograbber 1.83.01
#
DISCID=ae09fb0d
DTITLE=Fred Rai - Dein bester Freund
DYEAR=1900
DGENRE=Country
TTITLE0=Sie nannte ihr Pony, voll Zärtlichkeit Jonny
TTITLE1=Einsam ruhen wir am Lagerfeuer (Swanee River)
TTITLE2=Die Scheune blüht
TTITLE3=Dein bester Freund
TTITLE4=True Love
TTITLE5=Warum muss ich gehen
TTITLE6=Auf Kameraden, sattelt die Pferde
TTITLE7=Sperr' mich nicht in einen Käfig
TTITLE8=Am Sonntag darf ich endlich wieder Cowboy sein
TTITLE9=Schwarze Nacht und rabenschwarze Pferde
TTITLE10=Blankenstein Husar
TTITLE11=Das alte Pferd von Rocky Docky
TTITLE12=Am Lagerfeuer sitzen wir (Amazing Graze)
EXTD=
EXTT0=
EXTT1=
EXTT2=
EXTT3=
EXTT4=
EXTT5=
EXTT6=
EXTT7=
EXTT8=
EXTT9=
EXTT10=
EXTT11=
EXTT12=
PLAYORDER=
